<svg width="32" height="28" viewBox="0 0 32 28" fill="none" xmlns="http://www.w3.org/2000/svg">
<path d="M11.1152 12.2895H11.3786L11.5276 12.0723L19.4634 0.5H21.7L17.8854 11.6273L17.6584 12.2895H18.3584L26.9344 12.2895H27.2168L27.3626 12.0476L29.8824 7.86842H31.365L29.9139 13.8827L29.8857 14L29.9139 14.1173L31.365 20.1316H29.8823L27.3609 15.9522L27.2151 15.7105H26.9328L18.3568 15.7105H17.6567L17.8838 16.3727L21.6999 27.5H19.4634L11.5276 15.9277L11.3786 15.7105H11.1152L2.4 15.7105C1.88343 15.7105 1.39544 15.5211 1.04168 15.1953C0.689301 14.8707 0.5 14.4398 0.5 14C0.5 13.5602 0.689301 13.1293 1.04168 12.8047C1.39544 12.4789 1.88343 12.2895 2.4 12.2895L11.1152 12.2895Z" stroke="#6665DE"/>
</svg>
